<?xml version="1.0" encoding="iso-8859-1"?>
<!-- Generator: Adobe Illustrator 18.1.1, SVG Export Plug-In . SVG Version: 6.00 Build 0)  -->
<svg xmlns="http://www.w3.org/2000/svg" xmlns:xlink="http://www.w3.org/1999/xlink" version="1.1" id="Capa_1" x="0px" y="0px" viewBox="0 0 53.437 53.437" style="enable-background:new 0 0 53.437 53.437;" xml:space="preserve" width="512px" height="512px">
<g>
	<path d="M39.262,13.723h-1.916l3.508-11.577c0.268-0.88-0.229-1.809-1.108-2.074   c-0.878-0.266-1.81,0.23-2.074,1.109l-3.804,12.542H14.173c-0.482,0-0.94,0.209-1.256,0.572c-0.315,0.363-0.458,0.847-0.391,1.323   l5.128,36.386c0.115,0.82,0.817,1.433,1.647,1.433h15.801c0.846,0,1.559-0.635,1.653-1.476l4.158-36.386   c0.054-0.471-0.097-0.943-0.411-1.297C40.188,13.925,39.734,13.723,39.262,13.723z M20.778,50.853   c-0.019,0.002-0.038,0.003-0.058,0.003c-0.25,0-0.467-0.188-0.496-0.443l-2.125-18.658c-0.031-0.274,0.166-0.522,0.44-0.555   c0.268-0.027,0.522,0.166,0.554,0.44l2.125,18.659C21.25,50.575,21.053,50.823,20.778,50.853z M37.171,19.035l-0.937,8.19   c-0.127,1.098-1.123,1.986-2.229,1.986H19.802c-1.104,0-2.125-0.886-2.279-1.98l-1.155-8.202c-0.154-1.094,0.616-1.981,1.721-1.981   h17.009c0.014,0,0.301,0,0.301,0C36.503,17.048,37.297,17.938,37.171,19.035z" fill="#000000"/>
</g>
<g>
</g>
<g>
</g>
<g>
</g>
<g>
</g>
<g>
</g>
<g>
</g>
<g>
</g>
<g>
</g>
<g>
</g>
<g>
</g>
<g>
</g>
<g>
</g>
<g>
</g>
<g>
</g>
<g>
</g>
</svg>
