<?xml version="1.0" encoding="iso-8859-1"?>
<!-- Generator: Adobe Illustrator 18.0.0, SVG Export Plug-In . SVG Version: 6.00 Build 0)  -->
<!DOCTYPE svg PUBLIC "-//W3C//DTD SVG 1.1//EN" "http://www.w3.org/Graphics/SVG/1.1/DTD/svg11.dtd">
<svg xmlns="http://www.w3.org/2000/svg" xmlns:xlink="http://www.w3.org/1999/xlink" version="1.1" id="Capa_1" x="0px" y="0px" viewBox="0 0 159.083 159.083" style="enable-background:new 0 0 159.083 159.083;" xml:space="preserve" width="512px" height="512px">
<g>
	<path d="M149.542,71.417h-21.333V38.993c0-9.738-7.922-17.66-17.66-17.66h-5.156C103.05,9.197,92.352,0,79.542,0   S56.033,9.197,53.69,21.333h-5.156c-9.738,0-17.66,7.922-17.66,17.66v32.423H9.542c-2.761,0-5,2.239-5,5v77.667   c0,2.761,2.239,5,5,5h140c2.761,0,5-2.239,5-5V76.417C154.542,73.655,152.303,71.417,149.542,71.417z M79.542,10   c9.006,0,16.333,7.327,16.333,16.333c0,9.006-7.327,16.333-16.333,16.333s-16.333-7.327-16.333-16.333   C63.208,17.327,70.535,10,79.542,10z M40.875,38.993c0-4.224,3.436-7.66,7.66-7.66h5.155c2.343,12.137,13.041,21.333,25.851,21.333   s23.508-9.197,25.851-21.333h5.155c4.224,0,7.66,3.437,7.66,7.66v31.84H40.875V38.993z M101.125,149.083H82.542v-33.097h18.583   V149.083z M76.542,149.083H57.958v-33.097h18.583V149.083z M144.542,149.083h-37.417v-36.097c0-1.657-1.343-3-3-3H54.958   c-1.657,0-3,1.343-3,3v36.097H14.542V81.417h130V149.083z" fill="#000000"/>
	<path d="M71.875,29.333h4.667V34c0,1.657,1.343,3,3,3s3-1.343,3-3v-4.667h4.667c1.657,0,3-1.343,3-3s-1.343-3-3-3h-4.667v-4.667   c0-1.657-1.343-3-3-3s-3,1.343-3,3v4.667h-4.667c-1.657,0-3,1.343-3,3S70.218,29.333,71.875,29.333z" fill="#000000"/>
	<path d="M69.542,104.319h20c2.761,0,5-2.239,5-5s-2.239-5-5-5h-20c-2.761,0-5,2.239-5,5S66.78,104.319,69.542,104.319z" fill="#000000"/>
</g>
<g>
</g>
<g>
</g>
<g>
</g>
<g>
</g>
<g>
</g>
<g>
</g>
<g>
</g>
<g>
</g>
<g>
</g>
<g>
</g>
<g>
</g>
<g>
</g>
<g>
</g>
<g>
</g>
<g>
</g>
</svg>
