<?xml version="1.0" encoding="iso-8859-1"?>
<!-- Generator: Adobe Illustrator 18.1.1, SVG Export Plug-In . SVG Version: 6.00 Build 0)  -->
<svg xmlns="http://www.w3.org/2000/svg" xmlns:xlink="http://www.w3.org/1999/xlink" version="1.1" id="Capa_1" x="0px" y="0px" viewBox="0 0 54.862 54.862" style="enable-background:new 0 0 54.862 54.862;" xml:space="preserve" width="512px" height="512px">
<g>
	<path d="M51.862,0.282H3c-1.657,0-3,1.343-3,3V51.58c0,1.657,1.343,3,3,3h48.862c1.656,0,3-1.343,3-3V3.282   C54.862,1.625,53.518,0.282,51.862,0.282z M43.554,46.867c0,0.396-0.32,0.717-0.717,0.717h-5.732c-0.396,0-0.715-0.32-0.715-0.717   V30.799c0-0.396-0.322-0.718-0.718-0.718h-16.48c-0.396,0-0.717,0.321-0.717,0.718v16.068c0,0.396-0.32,0.717-0.716,0.717h-5.733   c-0.396,0-0.717-0.32-0.717-0.717V7.996c0-0.396,0.32-0.717,0.717-0.717h5.732c0.396,0,0.716,0.32,0.716,0.717V22.2   c0,0.396,0.321,0.716,0.717,0.716h16.48c0.396,0,0.717-0.32,0.717-0.716V7.996c0-0.396,0.32-0.717,0.717-0.717h5.731   c0.397,0,0.718,0.32,0.718,0.717C43.554,7.996,43.554,46.867,43.554,46.867z" fill="#000000"/>
</g>
<g>
</g>
<g>
</g>
<g>
</g>
<g>
</g>
<g>
</g>
<g>
</g>
<g>
</g>
<g>
</g>
<g>
</g>
<g>
</g>
<g>
</g>
<g>
</g>
<g>
</g>
<g>
</g>
<g>
</g>
</svg>
