<?xml version="1.0" encoding="iso-8859-1"?>
<!-- Generator: Adobe Illustrator 18.0.0, SVG Export Plug-In . SVG Version: 6.00 Build 0)  -->
<!DOCTYPE svg PUBLIC "-//W3C//DTD SVG 1.1//EN" "http://www.w3.org/Graphics/SVG/1.1/DTD/svg11.dtd">
<svg xmlns="http://www.w3.org/2000/svg" xmlns:xlink="http://www.w3.org/1999/xlink" version="1.1" id="Capa_1" x="0px" y="0px" viewBox="0 0 160.339 160.339" style="enable-background:new 0 0 160.339 160.339;" xml:space="preserve" width="512px" height="512px">
<g>
	<path d="M97.896,21.745V5c0-2.761-2.238-5-5-5H67.563c-2.762,0-5,2.239-5,5v16.697C44.818,28.731,32.23,46.054,32.23,66.273v81.261   c0,7.061,5.744,12.805,12.805,12.805h70.27c7.061,0,12.805-5.744,12.805-12.805V66.273C128.109,46.1,115.578,28.809,97.896,21.745z    M42.23,74.667h75.879V124H42.23V74.667z M72.563,10h15.333v8.964c-2.517-0.41-5.096-0.631-7.727-0.631   c-2.589,0-5.128,0.213-7.606,0.61V10z M80.169,28.333c20.92,0,37.939,17.02,37.939,37.94v2.394H42.23v-2.394   C42.23,45.353,59.25,28.333,80.169,28.333z M115.304,150.339h-70.27c-1.547,0-2.805-1.258-2.805-2.805V130h75.879v17.534   C118.109,149.081,116.851,150.339,115.304,150.339z" fill="#000000"/>
</g>
<g>
</g>
<g>
</g>
<g>
</g>
<g>
</g>
<g>
</g>
<g>
</g>
<g>
</g>
<g>
</g>
<g>
</g>
<g>
</g>
<g>
</g>
<g>
</g>
<g>
</g>
<g>
</g>
<g>
</g>
</svg>
