<?xml version="1.0" encoding="iso-8859-1"?>
<!-- Generator: Adobe Illustrator 18.1.1, SVG Export Plug-In . SVG Version: 6.00 Build 0)  -->
<svg xmlns="http://www.w3.org/2000/svg" xmlns:xlink="http://www.w3.org/1999/xlink" version="1.1" id="Capa_1" x="0px" y="0px" viewBox="0 0 57.352 57.352" style="enable-background:new 0 0 57.352 57.352;" xml:space="preserve" width="512px" height="512px">
<g>
	<g>
		<path d="M25.507,17.858c-0.411-0.316-1.001-0.24-1.318,0.17l-6.887,8.932    c-0.317,0.412-0.241,1.002,0.17,1.318l14.33,11.049c0.41,0.316,1,0.24,1.317-0.171l6.888-8.933c0.315-0.41,0.238-1-0.172-1.316    L25.507,17.858z M32.913,29.835c0-0.001-0.311,0.4-0.918,0.803c-0.433,0.285-1.06,0.508-1.344,0.592    c-0.227,0.067-0.454,0.136-0.518,0.146c-1.568,0.268-2.687,0.499-3.39,0.656c-0.506,0.111-0.915-0.21-0.933-0.729    c-0.025-0.719-0.085-1.854-0.226-3.435c-0.012-0.139-0.017-0.273-0.019-0.404l0.03-0.564c0.058-0.509,0.189-0.944,0.329-1.285    c0.195-0.48,0.699-1.185,1.16-1.424c0.716-0.369,1.614-0.316,2.296,0.209c0.441,0.341,0.715,0.82,0.804,1.33    c0.089,0.512,0.329,0.698,0.848,0.653c0.517-0.043,1.05,0.099,1.491,0.439C33.464,27.547,33.637,28.895,32.913,29.835z" fill="#000000"/>
		<path d="M51.33,6.239l-6.823-5.261c-2.055-1.585-5.006-1.204-6.59,0.851l-11.805,15.31l14.268,11    L52.183,12.83C53.766,10.775,53.383,7.823,51.33,6.239z M40.294,7.888c0.185-0.24,0.528-0.285,0.77-0.1    c0.238,0.185,0.283,0.529,0.099,0.77c-0.185,0.239-0.528,0.284-0.769,0.099C40.152,8.472,40.107,8.127,40.294,7.888z     M40.156,10.501c0.185-0.239,0.528-0.283,0.769-0.099c0.239,0.185,0.285,0.529,0.1,0.769c-0.184,0.239-0.528,0.284-0.768,0.099    C40.016,11.085,39.971,10.742,40.156,10.501z M39.764,13.317c0.186-0.24,0.529-0.285,0.77-0.099c0.24,0.185,0.284,0.528,0.1,0.769    c-0.185,0.239-0.528,0.284-0.77,0.1C39.626,13.902,39.581,13.557,39.764,13.317z M40.245,16.799    c-0.186,0.242-0.529,0.286-0.771,0.101c-0.238-0.185-0.283-0.53-0.098-0.77s0.528-0.284,0.769-0.099    C40.383,16.216,40.428,16.56,40.245,16.799z M38.4,6.428c0.185-0.24,0.53-0.285,0.769-0.1c0.24,0.185,0.284,0.529,0.101,0.77    c-0.185,0.24-0.529,0.284-0.769,0.099C38.26,7.013,38.216,6.669,38.4,6.428z M38.108,8.924c0.186-0.24,0.529-0.285,0.77-0.1    c0.24,0.185,0.285,0.529,0.101,0.77c-0.187,0.239-0.529,0.284-0.771,0.099C37.967,9.509,37.925,9.165,38.108,8.924z     M37.626,11.666c0.185-0.239,0.528-0.283,0.769-0.099c0.239,0.186,0.284,0.529,0.1,0.769c-0.185,0.24-0.528,0.285-0.771,0.1    C37.485,12.251,37.44,11.907,37.626,11.666z M35.781,7.13c0.187-0.24,0.531-0.284,0.771-0.1c0.24,0.185,0.285,0.529,0.1,0.77    c-0.186,0.24-0.529,0.284-0.77,0.099C35.641,7.714,35.596,7.371,35.781,7.13z M31.083,15.919    c-0.185,0.239-0.529,0.283-0.769,0.099c-0.239-0.185-0.285-0.529-0.101-0.769c0.186-0.241,0.529-0.285,0.771-0.1    C31.223,15.333,31.268,15.677,31.083,15.919z M33.1,17.474c-0.187,0.239-0.53,0.283-0.771,0.098    c-0.239-0.185-0.284-0.529-0.1-0.768c0.187-0.241,0.528-0.285,0.771-0.101C33.24,16.889,33.285,17.232,33.1,17.474z     M33.435,14.667c-0.187,0.238-0.53,0.282-0.771,0.098c-0.238-0.185-0.283-0.529-0.1-0.768c0.186-0.24,0.529-0.285,0.77-0.1    S33.619,14.426,33.435,14.667z M33.639,11.706c-0.187,0.239-0.53,0.284-0.771,0.1c-0.238-0.184-0.283-0.53-0.099-0.769    c0.185-0.24,0.528-0.284,0.769-0.1C33.778,11.123,33.823,11.466,33.639,11.706z M35.115,19.028    c-0.185,0.24-0.528,0.283-0.769,0.098c-0.24-0.184-0.285-0.528-0.101-0.768c0.185-0.24,0.529-0.284,0.769-0.1    C35.255,18.442,35.299,18.787,35.115,19.028z M35.574,16.315c-0.185,0.241-0.528,0.285-0.769,0.1s-0.285-0.529-0.102-0.77    c0.186-0.239,0.53-0.284,0.77-0.1C35.714,15.731,35.758,16.075,35.574,16.315z M35.966,13.5c-0.187,0.239-0.53,0.284-0.771,0.1    c-0.24-0.185-0.284-0.53-0.101-0.769c0.187-0.24,0.531-0.284,0.771-0.1C36.104,12.917,36.149,13.26,35.966,13.5z M35.676,10.857    c-0.238-0.185-0.283-0.529-0.099-0.769c0.185-0.239,0.529-0.283,0.769-0.099c0.24,0.185,0.285,0.529,0.101,0.769    C36.262,10.998,35.919,11.042,35.676,10.857z M37.132,20.583c-0.186,0.239-0.529,0.283-0.77,0.098    c-0.24-0.184-0.285-0.529-0.1-0.768c0.186-0.24,0.529-0.284,0.77-0.1C37.271,19.998,37.317,20.342,37.132,20.583z M37.714,17.965    c-0.185,0.24-0.529,0.284-0.769,0.099s-0.285-0.528-0.101-0.769c0.186-0.239,0.529-0.284,0.77-0.1    C37.854,17.379,37.898,17.724,37.714,17.965z M37.335,15.25c-0.24-0.185-0.283-0.529-0.099-0.769    c0.185-0.24,0.528-0.285,0.769-0.1c0.239,0.185,0.284,0.529,0.101,0.769C37.921,15.391,37.575,15.436,37.335,15.25z     M39.148,22.137c-0.187,0.239-0.531,0.283-0.771,0.098c-0.24-0.185-0.283-0.529-0.1-0.768c0.186-0.24,0.529-0.285,0.77-0.101    C39.287,21.551,39.333,21.895,39.148,22.137z M39.854,19.616c-0.186,0.239-0.529,0.283-0.77,0.099    c-0.238-0.185-0.283-0.529-0.1-0.769c0.184-0.24,0.529-0.284,0.77-0.1C39.995,19.031,40.038,19.375,39.854,19.616z M41.162,23.69    c-0.185,0.241-0.528,0.285-0.769,0.1c-0.239-0.185-0.284-0.529-0.1-0.769c0.187-0.241,0.529-0.285,0.77-0.101    C41.303,23.106,41.346,23.449,41.162,23.69z M41.994,21.265c-0.185,0.24-0.528,0.284-0.769,0.099    c-0.241-0.184-0.286-0.529-0.102-0.768c0.187-0.24,0.53-0.284,0.771-0.1C42.133,20.68,42.178,21.026,41.994,21.265z M42.383,18.45    c-0.185,0.24-0.529,0.285-0.77,0.1c-0.24-0.185-0.283-0.528-0.098-0.769c0.185-0.239,0.527-0.284,0.768-0.1    C42.524,17.867,42.568,18.21,42.383,18.45z M42.775,15.637c-0.187,0.239-0.529,0.284-0.771,0.1c-0.24-0.186-0.283-0.53-0.1-0.77    c0.186-0.24,0.529-0.284,0.77-0.099S42.96,15.396,42.775,15.637z M43.165,12.821c-0.186,0.24-0.529,0.285-0.769,0.1    c-0.241-0.185-0.286-0.529-0.101-0.769c0.186-0.24,0.529-0.284,0.771-0.1C43.305,12.237,43.35,12.58,43.165,12.821z     M43.441,10.314c-0.185,0.24-0.529,0.284-0.769,0.099c-0.24-0.184-0.285-0.528-0.101-0.769c0.185-0.239,0.528-0.284,0.769-0.099    C43.581,9.731,43.626,10.075,43.441,10.314z M43.608,7.822c-0.186,0.241-0.53,0.285-0.77,0.1c-0.24-0.185-0.283-0.528-0.1-0.77    c0.186-0.24,0.527-0.284,0.77-0.099C43.747,7.238,43.792,7.582,43.608,7.822z M44.835,20.339c-0.186,0.24-0.531,0.285-0.771,0.1    c-0.24-0.186-0.283-0.529-0.099-0.769c0.186-0.24,0.527-0.285,0.769-0.1C44.973,19.754,45.018,20.098,44.835,20.339z     M45.007,17.359c-0.185,0.239-0.529,0.284-0.77,0.099s-0.284-0.529-0.1-0.77c0.185-0.24,0.529-0.284,0.77-0.099    C45.146,16.775,45.191,17.118,45.007,17.359z M45.397,14.544c-0.186,0.239-0.529,0.283-0.77,0.098s-0.283-0.527-0.1-0.768    c0.186-0.24,0.529-0.285,0.77-0.101C45.537,13.958,45.583,14.302,45.397,14.544z M45.689,12.049    c-0.185,0.239-0.528,0.284-0.769,0.099s-0.285-0.529-0.101-0.769c0.185-0.24,0.53-0.284,0.771-0.1    C45.83,11.464,45.874,11.808,45.689,12.049z M45.841,9.543c-0.186,0.241-0.53,0.285-0.77,0.101c-0.24-0.186-0.285-0.529-0.1-0.77    c0.185-0.24,0.529-0.284,0.768-0.1C45.979,8.96,46.024,9.303,45.841,9.543z M46.143,6.809c-0.186,0.24-0.529,0.285-0.771,0.1    c-0.239-0.184-0.284-0.529-0.099-0.769c0.186-0.24,0.527-0.284,0.77-0.099C46.283,6.225,46.327,6.57,46.143,6.809z M47.723,16.337    c-0.186,0.24-0.529,0.284-0.771,0.099c-0.239-0.185-0.284-0.529-0.1-0.768c0.186-0.241,0.53-0.285,0.771-0.101    C47.863,15.752,47.908,16.096,47.723,16.337z M47.829,13.698c-0.186,0.24-0.529,0.284-0.77,0.099    c-0.24-0.184-0.285-0.529-0.102-0.768c0.187-0.241,0.531-0.285,0.771-0.1C47.967,13.113,48.012,13.459,47.829,13.698z" fill="#000000"/>
		<path d="M5.17,44.52c-1.584,2.056-1.203,5.006,0.852,6.592l6.823,5.261c2.056,1.585,5.006,1.204,6.59-0.851    l11.804-15.31l-14.265-11L5.17,44.52z M15.358,36.087c0.186-0.24,0.529-0.285,0.77-0.102c0.24,0.187,0.285,0.529,0.099,0.771    c-0.184,0.239-0.529,0.284-0.769,0.099C15.218,36.67,15.174,36.325,15.358,36.087z M10.393,44.322    c-0.185,0.239-0.53,0.284-0.77,0.101c-0.24-0.186-0.284-0.529-0.099-0.77s0.528-0.284,0.769-0.1    C10.533,43.739,10.578,44.082,10.393,44.322z M10.499,41.685c-0.186,0.24-0.531,0.285-0.77,0.1    c-0.24-0.186-0.285-0.529-0.099-0.77c0.184-0.24,0.528-0.283,0.769-0.1C10.639,41.101,10.684,41.444,10.499,41.685z     M12.078,51.211c-0.185,0.24-0.529,0.284-0.769,0.101c-0.24-0.187-0.284-0.529-0.1-0.77c0.185-0.24,0.53-0.285,0.77-0.1    C12.219,50.627,12.263,50.972,12.078,51.211z M12.381,48.477c-0.185,0.24-0.529,0.285-0.769,0.099    c-0.24-0.185-0.285-0.528-0.1-0.769c0.185-0.238,0.529-0.285,0.77-0.1C12.521,47.894,12.566,48.237,12.381,48.477z M12.532,45.972    c-0.185,0.24-0.529,0.285-0.769,0.101c-0.24-0.185-0.284-0.53-0.1-0.771c0.185-0.238,0.529-0.283,0.769-0.099    C12.672,45.388,12.717,45.731,12.532,45.972z M12.825,43.477c-0.186,0.24-0.53,0.285-0.77,0.1c-0.24-0.186-0.285-0.529-0.099-0.77    c0.184-0.24,0.529-0.283,0.769-0.1C12.965,42.894,13.01,43.235,12.825,43.477z M13.213,40.663c-0.184,0.24-0.528,0.284-0.768,0.1    c-0.24-0.186-0.285-0.529-0.1-0.77c0.185-0.239,0.529-0.285,0.769-0.1C13.354,40.078,13.398,40.422,13.213,40.663z M13.387,37.683    c-0.185,0.238-0.529,0.282-0.769,0.099c-0.24-0.187-0.284-0.53-0.1-0.769c0.185-0.24,0.529-0.285,0.77-0.101    C13.528,37.097,13.572,37.44,13.387,37.683z M14.614,50.199c-0.186,0.239-0.529,0.284-0.769,0.1    c-0.24-0.186-0.285-0.528-0.1-0.771c0.185-0.238,0.53-0.283,0.77-0.1C14.755,49.615,14.799,49.958,14.614,50.199z M14.781,47.706    c-0.185,0.24-0.53,0.285-0.77,0.102c-0.24-0.187-0.284-0.531-0.099-0.771s0.529-0.284,0.769-0.101    C14.921,47.122,14.966,47.466,14.781,47.706z M15.057,45.199c-0.185,0.239-0.53,0.284-0.769,0.1    c-0.24-0.185-0.285-0.528-0.1-0.771c0.185-0.238,0.529-0.283,0.769-0.098C15.196,44.615,15.241,44.959,15.057,45.199z     M15.447,42.384c-0.185,0.24-0.529,0.285-0.769,0.1c-0.24-0.186-0.285-0.528-0.1-0.77c0.185-0.238,0.53-0.283,0.77-0.1    C15.588,41.799,15.632,42.144,15.447,42.384z M15.836,39.571c-0.184,0.24-0.528,0.283-0.768,0.098    c-0.24-0.186-0.285-0.527-0.1-0.768c0.184-0.239,0.529-0.284,0.769-0.101C15.976,38.985,16.021,39.331,15.836,39.571z     M17.06,49.462c-0.186,0.241-0.529,0.287-0.77,0.102c-0.24-0.187-0.284-0.529-0.099-0.771c0.185-0.239,0.529-0.284,0.769-0.101    C17.201,48.879,17.244,49.222,17.06,49.462z M17.197,46.849c-0.186,0.241-0.529,0.285-0.769,0.101    c-0.24-0.185-0.285-0.529-0.1-0.771c0.185-0.24,0.529-0.283,0.769-0.099C17.337,46.265,17.381,46.608,17.197,46.849z     M17.586,44.035c-0.185,0.239-0.528,0.284-0.768,0.099s-0.285-0.529-0.1-0.769s0.53-0.285,0.769-0.099    C17.727,43.451,17.771,43.795,17.586,44.035z M17.108,40.551c0.185-0.239,0.529-0.284,0.77-0.1    c0.24,0.185,0.284,0.528,0.099,0.771c-0.185,0.238-0.529,0.282-0.769,0.098C16.968,41.134,16.924,40.79,17.108,40.551z     M18.952,50.922c-0.185,0.241-0.53,0.285-0.77,0.101c-0.24-0.185-0.284-0.53-0.1-0.771c0.185-0.239,0.53-0.284,0.77-0.099    C19.092,50.338,19.137,50.683,18.952,50.922z M19.244,48.427c-0.186,0.241-0.53,0.285-0.77,0.1    c-0.24-0.186-0.285-0.528-0.099-0.771c0.185-0.239,0.529-0.282,0.769-0.099C19.384,47.843,19.429,48.186,19.244,48.427z     M19.728,45.685c-0.185,0.24-0.53,0.285-0.77,0.101c-0.241-0.187-0.284-0.53-0.099-0.769c0.185-0.24,0.528-0.287,0.769-0.102    C19.868,45.101,19.912,45.444,19.728,45.685z M21.57,50.22c-0.186,0.242-0.53,0.286-0.77,0.1c-0.24-0.184-0.284-0.527-0.099-0.769    c0.185-0.239,0.529-0.284,0.769-0.1C21.71,49.636,21.755,49.979,21.57,50.22z M26.27,41.435c0.185-0.24,0.528-0.285,0.769-0.101    c0.24,0.185,0.284,0.528,0.099,0.769s-0.529,0.285-0.769,0.101C26.128,42.017,26.084,41.674,26.27,41.435z M24.252,39.878    c0.186-0.238,0.53-0.283,0.77-0.099c0.24,0.185,0.285,0.528,0.1,0.769c-0.186,0.241-0.53,0.285-0.77,0.1    C24.112,40.464,24.067,40.119,24.252,39.878z M23.917,42.686c0.185-0.24,0.53-0.285,0.77-0.101c0.24,0.185,0.285,0.529,0.1,0.769    c-0.185,0.242-0.53,0.285-0.77,0.101C23.777,43.27,23.733,42.925,23.917,42.686z M23.714,45.644    c0.185-0.238,0.529-0.285,0.769-0.101c0.24,0.187,0.284,0.53,0.1,0.771c-0.185,0.24-0.53,0.285-0.769,0.1    C23.574,46.227,23.53,45.884,23.714,45.644z M22.238,38.325c0.185-0.241,0.529-0.285,0.769-0.1c0.24,0.186,0.284,0.528,0.1,0.769    c-0.186,0.241-0.529,0.285-0.769,0.101C22.098,38.91,22.053,38.565,22.238,38.325z M21.778,41.038    c0.186-0.242,0.529-0.287,0.769-0.102c0.24,0.186,0.285,0.528,0.1,0.77c-0.185,0.238-0.529,0.284-0.77,0.1    C21.637,41.621,21.594,41.276,21.778,41.038z M21.387,43.851c0.185-0.24,0.53-0.285,0.77-0.101c0.24,0.185,0.284,0.528,0.1,0.771    c-0.186,0.24-0.53,0.283-0.77,0.099C21.248,44.435,21.202,44.09,21.387,43.851z M21.675,46.492c0.24,0.187,0.284,0.53,0.1,0.771    c-0.186,0.24-0.53,0.284-0.77,0.1c-0.24-0.186-0.285-0.529-0.1-0.771C21.09,46.353,21.435,46.308,21.675,46.492z M20.221,36.769    c0.185-0.24,0.529-0.283,0.768-0.099c0.24,0.185,0.285,0.528,0.1,0.769c-0.185,0.242-0.528,0.285-0.769,0.101    C20.08,37.354,20.035,37.011,20.221,36.769z M19.638,39.386c0.185-0.24,0.529-0.283,0.769-0.1c0.24,0.186,0.285,0.529,0.1,0.77    c-0.185,0.238-0.529,0.283-0.769,0.1C19.498,39.97,19.454,39.625,19.638,39.386z M20.018,42.103    c0.24,0.185,0.284,0.528,0.099,0.769c-0.185,0.239-0.528,0.284-0.768,0.101c-0.24-0.186-0.285-0.529-0.1-0.77    C19.433,41.961,19.778,41.916,20.018,42.103z M18.205,35.214c0.185-0.24,0.529-0.283,0.769-0.099    c0.24,0.185,0.285,0.528,0.1,0.769c-0.186,0.241-0.529,0.286-0.769,0.1C18.065,35.799,18.02,35.455,18.205,35.214z M17.498,37.737    c0.185-0.241,0.53-0.285,0.769-0.1c0.24,0.185,0.285,0.528,0.1,0.77c-0.185,0.238-0.529,0.283-0.769,0.099    C17.358,38.321,17.314,37.977,17.498,37.737z M17.059,34.33c-0.186,0.239-0.529,0.285-0.769,0.101    c-0.241-0.186-0.286-0.529-0.1-0.771c0.185-0.239,0.529-0.283,0.769-0.099C17.199,33.747,17.244,34.09,17.059,34.33z" fill="#000000"/>
	</g>
</g>
<g>
</g>
<g>
</g>
<g>
</g>
<g>
</g>
<g>
</g>
<g>
</g>
<g>
</g>
<g>
</g>
<g>
</g>
<g>
</g>
<g>
</g>
<g>
</g>
<g>
</g>
<g>
</g>
<g>
</g>
</svg>
