<?xml version="1.0" encoding="iso-8859-1"?>
<!-- Generator: Adobe Illustrator 16.0.0, SVG Export Plug-In . SVG Version: 6.00 Build 0)  -->
<!DOCTYPE svg PUBLIC "-//W3C//DTD SVG 1.1//EN" "http://www.w3.org/Graphics/SVG/1.1/DTD/svg11.dtd">
<svg xmlns="http://www.w3.org/2000/svg" xmlns:xlink="http://www.w3.org/1999/xlink" version="1.1" id="Capa_1" x="0px" y="0px" width="512px" height="512px" viewBox="0 0 55.993 55.993" style="enable-background:new 0 0 55.993 55.993;" xml:space="preserve">
<g>
	<g>
		<path d="M51.42,5.143H4.574C2.052,5.143,0,7.195,0,9.718v36.558c0,2.521,2.051,4.574,4.574,4.574H51.42    c2.521,0,4.573-2.053,4.573-4.574V9.718C55.993,7.196,53.942,5.143,51.42,5.143z M52.336,46.276c0,0.504-0.41,0.914-0.916,0.914    H4.574c-0.505,0-0.915-0.41-0.915-0.914V9.718c0-0.505,0.41-0.915,0.915-0.915H51.42c0.506,0,0.916,0.41,0.916,0.915V46.276z" fill="#000000"/>
		<path d="M45.997,12.174H9.998c-1.516,0-2.744,1.229-2.744,2.745v13.298h6.206v-0.001l2.576-2.447    c0.271-0.258,0.649-0.393,1.012-0.375c0.375,0.017,0.726,0.188,0.971,0.472l1.121,1.293l1.297-6.772    c0.114-0.595,0.606-1.046,1.209-1.108c0.597-0.059,1.175,0.28,1.407,0.84l1.639,3.953l1.572-3.31    c0.245-0.516,0.78-0.819,1.349-0.779c0.567,0.045,1.048,0.437,1.209,0.981l2.477,8.432l0.881-4.931    c0.104-0.573,0.556-1.02,1.131-1.113c0.584-0.098,1.146,0.188,1.425,0.697l2.396,4.391l1.517-3.065    c0.229-0.467,0.709-0.764,1.229-0.764h8.865v-9.692C48.741,13.402,47.512,12.174,45.997,12.174z" fill="#000000"/>
		<path d="M38.42,32.024c-0.228,0.458-0.691,0.754-1.203,0.764c-0.488,0.026-0.986-0.266-1.231-0.715l-1.792-3.283l-1.221,6.828    c-0.111,0.627-0.642,1.097-1.276,1.129c-0.024,0.002-0.05,0.002-0.075,0.002c-0.604,0-1.145-0.398-1.314-0.983L27.202,25.19    l-1.354,2.851c-0.232,0.489-0.746,0.788-1.274,0.784c-0.542-0.015-1.025-0.347-1.233-0.848l-1.067-2.575l-0.968,5.053    c-0.1,0.517-0.484,0.932-0.993,1.065c-0.504,0.14-1.048-0.028-1.393-0.427l-2.033-2.346l-1.932,1.834    c-0.256,0.242-0.594,0.379-0.945,0.379H7.256v10.111c0,1.519,1.228,2.746,2.744,2.746h35.997c1.517,0,2.744-1.229,2.744-2.746    V27.356h-8.015L38.42,32.024z" fill="#000000"/>
	</g>
</g>
<g>
</g>
<g>
</g>
<g>
</g>
<g>
</g>
<g>
</g>
<g>
</g>
<g>
</g>
<g>
</g>
<g>
</g>
<g>
</g>
<g>
</g>
<g>
</g>
<g>
</g>
<g>
</g>
<g>
</g>
</svg>
